<svg fill="#000000" xmlns="http://www.w3.org/2000/svg"  viewBox="0 0 100 100" width="100px" height="100px"><path d="M 31 18 C 23.82 18 18 23.82 18 31 L 18 70 C 18 77.18 23.82 83 31 83 L 70 83 C 77.179 83 83 77.18 83 70 L 83 31 C 83 23.82 77.18 18 70 18 L 31 18 z M 31 20 L 70 20 C 76.075 20 81 24.925 81 31 L 81 70 C 81 76.075 76.075 81 70 81 L 31 81 C 24.925 81 20 76.075 20 70 L 20 31 C 20 24.925 24.924 20 31 20 z M 33.837891 23 C 27.852891 23 23 27.852891 23 33.837891 L 23 67.162109 C 23 73.147109 27.852891 78 33.837891 78 L 67.162109 78 C 73.147109 78 78 73.148109 78 67.162109 L 78 48.5 C 78 48.224 77.776 48 77.5 48 C 77.224 48 77 48.224 77 48.5 L 77 67.162109 C 77 72.595109 72.595109 77 67.162109 77 L 33.837891 77 C 28.404891 77 24 72.595109 24 67.162109 L 24 33.837891 C 24 28.404891 28.404891 24 33.837891 24 L 67.5 24 C 67.776 24 68 23.776 68 23.5 C 68 23.224 67.776 23 67.5 23 L 33.837891 23 z M 46.765625 33.013672 C 46.272718 32.977006 45.765434 33.082674 45.306641 33.345703 C 44.083507 34.046934 43.655405 35.620494 44.355469 36.84375 L 47.066406 41.603516 L 40.568359 53.009766 L 34.515625 53.009766 C 33.141396 53.009766 32.015625 54.135536 32.015625 55.509766 C 32.015625 56.883995 33.141396 58.007812 34.515625 58.007812 L 51.998047 58.007812 C 52.727167 58.007813 53.385653 57.482917 53.484375 56.736328 C 53.624946 55.685149 53.330062 54.847714 52.917969 54.267578 C 52.505876 53.687443 51.996302 53.351567 51.685547 53.181641 L 51.685547 53.183594 C 51.459935 53.059507 51.217161 53.009766 50.986328 53.009766 L 46.466797 53.009766 L 55.675781 36.845703 L 55.675781 36.84375 C 56.374458 35.620626 55.947742 34.047649 54.724609 33.347656 C 53.501353 32.647593 51.928728 33.073358 51.228516 34.296875 A 0.50005 0.50005 0 0 0 51.226562 34.298828 L 50.015625 36.423828 L 48.804688 34.296875 A 0.50005 0.50005 0 0 0 48.804688 34.294922 C 48.454107 33.683418 47.88599 33.269978 47.251953 33.097656 C 47.093444 33.054576 46.929927 33.025894 46.765625 33.013672 z M 46.695312 34.005859 C 46.795211 34.013016 46.893994 34.030471 46.990234 34.056641 C 47.375197 34.161318 47.721079 34.415473 47.9375 34.792969 L 49.582031 37.681641 A 0.50005 0.50005 0 0 0 50.451172 37.681641 L 52.095703 34.794922 C 52.52749 34.040439 53.473772 33.782907 54.228516 34.214844 C 54.982779 34.646505 55.240458 35.594992 54.808594 36.349609 A 0.50005 0.50005 0 0 0 54.806641 36.349609 L 45.171875 53.261719 A 0.50005 0.50005 0 0 0 45.607422 54.009766 L 50.986328 54.009766 C 51.075498 54.009766 51.148736 54.028674 51.203125 54.058594 A 0.50005 0.50005 0 0 0 51.205078 54.060547 C 51.428323 54.182621 51.814859 54.441292 52.103516 54.847656 C 52.392172 55.254021 52.602569 55.794648 52.494141 56.605469 C 52.464861 56.82688 52.244927 57.007813 51.998047 57.007812 L 34.515625 57.007812 C 33.681854 57.007812 33.015625 56.343536 33.015625 55.509766 C 33.015625 54.675995 33.681854 54.009766 34.515625 54.009766 L 40.859375 54.009766 A 0.50005 0.50005 0 0 0 41.292969 53.757812 L 48.076172 41.849609 A 0.50005 0.50005 0 0 0 48.076172 41.355469 L 45.224609 36.347656 A 0.50005 0.50005 0 0 0 45.224609 36.345703 C 44.792673 35.590959 45.047868 34.64566 45.802734 34.212891 C 46.085691 34.05067 46.395617 33.98439 46.695312 34.005859 z M 77.5 36.578125 C 77.224 36.578125 77 36.802125 77 37.078125 L 77 39.078125 C 77 39.354125 77.224 39.578125 77.5 39.578125 C 77.776 39.578125 78 39.355125 78 39.078125 L 78 37.078125 C 78 36.802125 77.776 36.578125 77.5 36.578125 z M 77.5 40.578125 C 77.224 40.578125 77 40.802125 77 41.078125 L 77 45.078125 C 77 45.354125 77.224 45.578125 77.5 45.578125 C 77.776 45.578125 78 45.355125 78 45.078125 L 78 41.078125 C 78 40.802125 77.776 40.578125 77.5 40.578125 z M 53.515625 43.123047 A 0.50005 0.50005 0 0 0 53.105469 43.375 L 52.421875 44.574219 C 51.285851 46.567946 51.285851 49.014085 52.421875 51.007812 L 60.228516 64.716797 C 60.706015 65.550566 61.587787 66.018992 62.488281 66.007812 C 62.910808 66.002813 63.337848 65.890091 63.726562 65.667969 C 64.9503 64.96763 65.37787 63.393304 64.677734 62.169922 L 62.308594 58.011719 L 65.509766 58.011719 C 65.696735 58.01173 65.87922 57.990786 66.054688 57.951172 C 67.282963 57.673875 68.176005 56.481046 67.988281 55.146484 C 67.806232 53.853041 66.607914 53.003906 65.355469 53.003906 L 59.457031 53.003906 L 53.974609 43.375 A 0.50005 0.50005 0 0 0 53.515625 43.123047 z M 53.539062 44.632812 L 58.732422 53.751953 A 0.50005 0.50005 0 0 0 59.167969 54.003906 L 65.355469 54.003906 C 66.155023 54.003906 66.894096 54.548552 66.998047 55.287109 C 67.114743 56.116725 66.583551 56.815339 65.839844 56.976562 C 65.7336 56.999594 65.623434 57.011813 65.509766 57.011719 L 61.449219 57.011719 A 0.50005 0.50005 0 0 0 61.013672 57.759766 L 63.808594 62.666016 C 64.240458 63.420633 63.984732 64.36912 63.230469 64.800781 C 62.989183 64.938659 62.732036 65.004798 62.476562 65.007812 C 61.927057 65.014612 61.392157 64.734934 61.097656 64.220703 L 53.291016 50.511719 C 52.329039 48.823446 52.329039 46.756632 53.291016 45.068359 L 53.539062 44.632812 z M 38.525391 59.023438 C 37.619315 59.092937 36.998047 59.472656 36.998047 59.472656 A 0.50005 0.50005 0 0 0 36.830078 59.644531 L 35.355469 62.160156 A 0.50005 0.50005 0 0 0 35.351562 62.166016 C 34.651164 63.38862 35.078997 64.96177 36.302734 65.662109 A 0.50005 0.50005 0 0 0 36.302734 65.664062 C 36.692141 65.886582 37.118521 65.99575 37.539062 66.001953 A 0.50005 0.50005 0 0 0 37.541016 66.001953 C 38.441053 66.013123 39.321161 65.545863 39.798828 64.712891 L 41.972656 60.925781 A 0.50005 0.50005 0 0 0 41.875 60.308594 C 40.665479 59.200995 39.431466 58.953938 38.525391 59.023438 z M 38.601562 60.019531 C 39.197555 59.973811 39.990557 60.169769 40.867188 60.839844 L 38.931641 64.214844 C 38.637455 64.728526 38.103574 65.008157 37.554688 65.001953 C 37.29723 64.998153 37.039421 64.932403 36.798828 64.794922 C 36.044565 64.363261 35.789102 63.415505 36.220703 62.662109 L 36.216797 62.666016 L 37.603516 60.302734 C 37.658036 60.270534 37.976812 60.067452 38.601562 60.019531 z"/></svg>