<svg fill="#000000" xmlns="http://www.w3.org/2000/svg"  viewBox="0 0 32 32" width="32px" height="32px"><path d="M 11 3 L 9 5 L 9 9 L 3 9 L 3 27 C 3 28.093063 3.9069372 29 5 29 L 27 29 C 28.093063 29 29 28.093063 29 27 L 29 9 L 23 9 L 23 5 L 21 3 L 11 3 z M 11 5 L 21 5 L 21 9 L 11 9 L 11 5 z M 5 11 L 27 11 L 27 27 L 5 27 L 5 11 z M 11 14 L 11 18.5 L 15.5 18.5 L 15.5 14 L 11 14 z M 16.5 14 L 16.5 18.5 L 21 18.5 L 21 14 L 16.5 14 z M 11 19.5 L 11 24 L 15.5 24 L 15.5 19.5 L 11 19.5 z M 16.5 19.5 L 16.5 24 L 21 24 L 21 19.5 L 16.5 19.5 z"/></svg>